<svg xmlns="http://www.w3.org/2000/svg" xmlns:xlink="http://www.w3.org/1999/xlink" version="1.1" id="Your_Icon" x="0px" y="0px" width="100px" height="100px" viewBox="0 0 100 100" enable-background="new 0 0 100 100" xml:space="preserve">
<path d="M51.329,50.228c-1.414,7.823-8.259,13.78-16.482,13.779c-4.477,0-8.689-1.742-11.854-4.908  c-3.167-3.167-4.91-7.378-4.91-11.856c0-9.243,7.521-16.763,16.763-16.764c4.479,0,8.689,1.743,11.855,4.91  c2.163,2.164,3.643,4.819,4.376,7.709c0.61-0.051,1.224-0.086,1.841-0.086c0.754,0,1.501,0.039,2.241,0.112  c-0.795-3.964-2.735-7.608-5.659-10.533c-3.914-3.913-9.118-6.069-14.654-6.068c-11.427,0.001-20.721,9.298-20.72,20.721  c-0.001,5.537,2.154,10.74,6.069,14.655c3.913,3.914,9.117,6.068,14.653,6.068c10.37,0,18.96-7.665,20.463-17.623  c-0.781-0.125-1.576-0.208-2.392-0.208C52.383,50.136,51.854,50.173,51.329,50.228z"/>
<path d="M67.572,50.664c-3.913-3.914-9.117-6.07-14.652-6.069c-10.371-0.002-18.963,7.666-20.465,17.625  c0.785,0.124,1.581,0.204,2.391,0.204c0.536,0,1.065-0.038,1.59-0.092c1.414-7.822,8.26-13.779,16.483-13.781  c4.479,0,8.689,1.744,11.855,4.912c3.165,3.165,4.91,7.375,4.909,11.853C69.682,74.56,62.162,82.08,52.92,82.08  c-4.479,0-8.689-1.744-11.855-4.91c-2.163-2.162-3.642-4.817-4.375-7.707c-0.611,0.052-1.226,0.087-1.844,0.087  c-0.753,0-1.5-0.038-2.239-0.111c0.795,3.963,2.736,7.606,5.659,10.53c3.914,3.914,9.118,6.069,14.654,6.068  c11.426,0.001,20.723-9.296,20.721-20.722C73.642,59.781,71.486,54.578,67.572,50.664z"/>
<path d="M20.194,61.897c-3.915-3.913-6.07-9.118-6.069-14.655h3.957c0,4.478,1.743,8.689,4.91,11.856  c3.165,3.166,7.377,4.908,11.854,4.908c5.363,0.001,10.275-2.474,13.477-6.789l3.178,2.36c-3.896,5.252-10.123,8.388-16.655,8.388  C29.311,67.966,24.107,65.812,20.194,61.897z"/>
<rect x="73.772" y="30.227" transform="matrix(0.7073 0.7069 -0.7069 0.7073 52.2052 -41.1148)" width="3.958" height="24.513"/>
<path d="M83.158,53.029c-0.323-0.323-0.521-0.768-0.521-1.261l-0.001-16.171l-16.171-0.001c-0.985,0.001-1.782-0.796-1.781-1.78  c0-0.984,0.796-1.781,1.78-1.781l17.952,0.001c0.984-0.001,1.782,0.796,1.781,1.781l0.001,17.952c0,0.983-0.797,1.781-1.781,1.781  C83.927,53.552,83.479,53.351,83.158,53.029z"/>
<rect x="55.701" y="12.154" transform="matrix(0.707 0.7072 -0.7072 0.707 34.1602 -33.638)" width="3.958" height="24.513"/>
<path d="M65.087,34.958c-0.322-0.322-0.522-0.768-0.522-1.261V17.525l-16.171,0c-0.984,0.001-1.782-0.796-1.782-1.781  c0-0.984,0.796-1.78,1.782-1.78h17.954c0.983,0,1.781,0.797,1.78,1.781l-0.001,17.954c0,0.983-0.796,1.781-1.779,1.781  C65.854,35.479,65.409,35.279,65.087,34.958z"/>
</svg>