<svg xmlns="http://www.w3.org/2000/svg" xmlns:xlink="http://www.w3.org/1999/xlink" version="1.1" id="Your_Icon" x="0px" y="0px" width="100px" height="100px" viewBox="0 0 100 100" enable-background="new 0 0 100 100" xml:space="preserve">
<g>
	<path fill="#000000" d="M53.368,52.34l-0.49,0.059c-0.424,0.051-0.744,0.496-0.744,0.999v0.533c0,0.503,0.32,0.948,0.744,0.998   l0.49,0.06c0.505,0.061,0.95-0.385,0.95-0.998v-0.652C54.318,52.724,53.873,52.278,53.368,52.34z"/>
	<path fill="#000000" d="M76.376,84.271c-2.685-3.332-6.555-5.746-8.428-6.797c-0.543-1.354-2.656-6.922-3.56-13.714   c-0.506-3.805,0.144-5.843,1.29-7.656c3.069,1.491,6.238,2.823,9.498,3.977c-2.438-2.323-5.007-4.476-7.676-6.476   c0.089-0.117,0.179-0.237,0.269-0.357c3.164,1.078,6.399,2.005,9.698,2.762c-2.613-1.868-5.322-3.579-8.102-5.151   c0.092-0.157,0.184-0.315,0.275-0.482c3.138,0.667,6.319,1.196,9.541,1.573c-2.743-1.462-5.554-2.779-8.414-3.964   c0.077-0.188,0.153-0.377,0.228-0.576c3.096,0.301,6.218,0.474,9.356,0.507c-2.826-1.084-5.695-2.035-8.597-2.862   c0.036-0.128,0.074-0.251,0.108-0.384c0.023-0.088,0.042-0.177,0.064-0.266c3.02-0.034,6.048-0.188,9.076-0.469   c-2.846-0.728-5.716-1.334-8.601-1.824c0.039-0.242,0.079-0.483,0.112-0.726c2.892-0.341,5.778-0.794,8.652-1.359   c-2.808-0.395-5.623-0.678-8.439-0.856c0.016-0.272,0.028-0.546,0.036-0.819c2.721-0.614,5.426-1.326,8.106-2.14   c-2.714-0.09-5.423-0.077-8.122,0.026c-0.013-0.308-0.033-0.616-0.056-0.923c2.511-0.85,4.997-1.782,7.45-2.806   c-2.572,0.182-5.129,0.457-7.668,0.809c-0.05-0.346-0.106-0.689-0.169-1.033c2.268-1.043,4.507-2.153,6.707-3.345   c-2.392,0.417-4.761,0.917-7.108,1.479c-0.095-0.382-0.199-0.76-0.312-1.135c2.007-1.193,3.982-2.44,5.917-3.758   c-2.189,0.615-4.351,1.3-6.487,2.036c-0.151-0.409-0.317-0.812-0.49-1.211c1.745-1.305,3.46-2.655,5.132-4.062   c-1.986,0.78-3.94,1.618-5.868,2.501c-0.218-0.423-0.449-0.837-0.691-1.244c1.501-1.392,2.969-2.822,4.396-4.298   c-1.796,0.925-3.561,1.896-5.296,2.908c-0.29-0.413-0.593-0.815-0.909-1.205c1.288-1.475,2.541-2.984,3.755-4.529   c-1.642,1.067-3.248,2.175-4.823,3.319c-0.356-0.373-0.728-0.731-1.112-1.074c1.114-1.58,2.191-3.19,3.227-4.832   c-1.529,1.233-3.021,2.504-4.478,3.81c-0.405-0.303-0.826-0.587-1.259-0.856c0.977-1.733,1.911-3.494,2.796-5.285   c-1.464,1.453-2.879,2.944-4.255,4.468c-0.363-0.181-0.732-0.353-1.111-0.51c-0.063-0.026-0.125-0.048-0.188-0.074   c0.857-1.95,1.666-3.927,2.414-5.934c-1.418,1.731-2.774,3.506-4.083,5.312c-0.403-0.136-0.804-0.262-1.202-0.376   c0.721-2.203,1.384-4.43,1.972-6.687c-1.342,2.034-2.608,4.112-3.812,6.222c-0.355-0.076-0.709-0.142-1.059-0.202   c0.549-2.46,1.026-4.944,1.414-7.452c-1.23,2.359-2.368,4.76-3.424,7.192c-0.295-0.026-0.588-0.046-0.879-0.062   c0.34-2.72,0.586-5.461,0.731-8.22c-1.072,2.699-2.037,5.434-2.895,8.199c-0.228,0.008-0.454,0.021-0.68,0.035   c0.086-2.976,0.061-5.965-0.085-8.961c-0.861,3.042-1.587,6.117-2.191,9.213c-0.164,0.025-0.328,0.051-0.489,0.08   c-0.212-3.213-0.552-6.43-1.035-9.639c-0.594,3.373-1.028,6.765-1.317,10.166c-0.101,0.028-0.202,0.056-0.302,0.084   c-0.556-3.414-1.258-6.816-2.125-10.192c-0.27,3.663-0.358,7.33-0.277,10.986c-0.044,0.017-0.086,0.034-0.13,0.052   c-0.939-3.558-2.049-7.082-3.338-10.555c0.105,3.873,0.405,7.728,0.898,11.548c-1.348-3.607-2.886-7.153-4.612-10.62   c0.496,3.852,1.185,7.665,2.065,11.419c-1.722-3.434-3.63-6.783-5.722-10.027c0.886,3.788,1.961,7.512,3.225,11.155   c-2.086-3.209-4.353-6.308-6.796-9.275c1.271,3.678,2.727,7.267,4.367,10.747c-2.435-2.931-5.045-5.724-7.824-8.359   c1.649,3.518,3.479,6.92,5.484,10.188c-2.768-2.597-5.703-5.027-8.796-7.271c2.017,3.308,4.208,6.472,6.567,9.475   c-3.082-2.204-6.321-4.213-9.708-6.003c2.252,2.888,7.449,9.271,10.276,12.204c-0.478,1.353-0.702,2.244-0.702,2.244   s-0.294,0.72,0,3.914c0.283,3.068,1.514,3.914,0,5.823c-1.514,1.91-4.542,5.728-4.542,7.064c0,0.972,0.128,1.48,0.614,1.837   c0,0.003,0,0.004,0,0.006v0.832c0,0.783,0.479,1.513,1.142,1.643l0.811,0.16c0.645,0.127,1.254-0.224,1.541-0.842   c0.089,0.208,0.116,0.453,0.057,0.755c-0.284,1.432-1.23,2.005-0.378,3.055s4.92,1.08,4.92,1.08s-4.637,0.915-3.974,2.156   c0.662,1.24,2.649,1.441,2.555,2.49c-0.094,1.051-0.723,5.274,0.568,6.205c1.325,0.954,5.867,0.382,8.232,0.19   c2.366-0.19,4.921,0.383,5.583,4.392c0.484,2.929,0.894,4.928,1.08,5.794c-1.077,0.799-2.134,1.933-2.311,3.376   c-0.378,3.091-0.883,5.426-1.956,6.813s-5.678,7.129-5.678,7.129l49.146-0.253C83.441,95.564,80.034,88.813,76.376,84.271z    M23.634,52.455l-0.491-0.06c-0.424-0.051-0.744-0.496-0.744-0.999v-0.397c0.055,0.022,0.103,0.046,0.163,0.067   c0.709,0.255,1.431,0.439,1.975,0.705C24.414,52.213,24.046,52.504,23.634,52.455z M55.253,54.244c0,1.091-0.828,1.812-1.715,1.639   l-0.812-0.16c-0.663-0.131-1.141-0.859-1.141-1.643v-0.832c0-0.783,0.478-1.512,1.141-1.643l0.812-0.16   c0.887-0.174,1.715,0.547,1.715,1.639V54.244z"/>
</g>
</svg>