<svg xmlns="http://www.w3.org/2000/svg" xmlns:xlink="http://www.w3.org/1999/xlink" version="1.1" id="Capa_1" x="0px" y="0px" width="90px" height="90px" viewBox="0 0 90 90" enable-background="new 0 0 90 90" xml:space="preserve">
<g>
	<path d="M29.539,66.41c-0.303-1.381,0.661-3.782,0.825-4.228c2.931-7.917,4.245-13.477,4.329-14.218   c0.084-0.741,0.101-1.886,0.27-2.61c0.168-0.725,1.583-6.94,1.6-7.614c0.017-0.674,0.219-0.337,0.371,0.32   c0.07,0.306,0.447,1.561,0.861,2.899c0,0,1.118,0.082,1.497-0.196c0.379-0.277-0.48-4.169,0.505-5.812   c0.347-0.578,0.328-1.769,0.581-2.451c0.252-0.682,0.278-0.024,0.278-0.96c0-0.935-0.505-9.021-0.379-9.425   c0.126-0.404,0.354-0.707,0.354-0.707s0.303,10.006,0.708,10.283c0.404,0.278,0.354,0.43,0.682,0.582   c0.329,0.151,3.885,2.438,5.811,6.291c0.278,0.556,0.051,0.581,2.755,0.455c0,0,3.007-4.245,3.107-8.086   c0.013-0.482,0.151-0.277-0.151-0.985c-0.304-0.707-3.333-6.289-3.613-7.182l0,0c-0.45,0-0.786-0.043-0.901-0.154   c-0.472-0.455-1.095-3.486-1.111-3.857s0.337-0.169,0.337-0.169c1.355,0.06,1.903-0.387,1.954-0.993   c0.05-0.606,0.149-0.888,0.354-1.289c0.707-1.39,0.783-2.526,0.809-3.209c0.025-0.682-0.455-1.061-0.354-1.313   c0.101-0.253,0.404-1.566,0.277-2.021c-0.126-0.455,0-0.48,0.051-0.758c0.051-0.278,0.177-1.011-0.151-2.779   c-0.329-1.77-3.664-3.462-4.675-3.664c-1.01-0.202-2.125,0.175-2.526,0.228c-4.649,0.606-6.696,4.422-7.125,5.786   s-0.101,3.184,0.556,4.32c0.657,1.138,0.985,0.783,0.91,1.566c-0.076,0.784-0.606,0.152-1.086-0.151   c-0.48-0.303-0.834,0.354-1.643,0.936c-0.809,0.581-1.188,1.288-1.364,2.046c-0.177,0.759-0.151,0.354-0.329,0.683   c-0.177,0.328-0.455,0.051-0.708,0.783c-0.252,0.732-0.455,0.53-0.505,1.718c-0.05,1.188-0.05,0.632-0.429,1.77   c-0.379,1.137,0.177,0.884-0.404,1.39c-0.581,0.505-0.581,0.479-0.758,1.036c-0.177,0.556,0.051,0.656-0.732,1.212   c-0.784,0.557,0.101,0.48,0.581,0.278s0.623,0.278,0.421,0.599c-0.202,0.319-0.404,1.33-0.606,2.577   c-0.202,1.246-0.488,12.465-0.606,13.829c-0.118,1.365-0.69,3.437-0.69,3.437c-1.28,2.544-2.105,13.477-2.19,14.47   c-0.084,0.994-0.236,2.19-0.522,2.881c-0.287,0.69-0.337,1.011-0.472,1.785c-0.135,0.775-0.489,6.148-0.556,6.705   c-0.067,0.556,0.32,0.774,0.556,1.381s0.573,2.308,1.146,2.931c0.573,0.624,2.123,1.449,2.51,1.5   c0.387,0.05,0.067-0.404,0.505-0.404s0.27-0.522,0.303-0.859s-0.691-0.573-1.163-0.792c-0.083-0.038-0.136-0.062-0.169-0.078   c-0.102-0.14-0.272-0.438-0.572-0.663c-0.404-0.303-0.371-0.521-0.371-1.28c0-0.758,0.354-1.617,0.707-1.819   c0.354-0.202,0.219,0.843,0.186,1.617c-0.034,0.775,0.118,1.163,0.657,1.701c0.539,0.539,0.725,0.068,0.741-0.556   c0.017-0.623,0.017-4.717-0.135-5.66C30.482,68.516,29.842,67.792,29.539,66.41z M29.505,76.197c-0.02,0-0.044-0.025-0.075-0.066   C29.479,76.16,29.541,76.197,29.505,76.197z"/>
	<path d="M64.071,62.906c0.033-0.454-0.084-0.942-0.27-1.667s-0.515-5.795-0.539-6.317c-0.354-7.462-1.432-11.05-1.668-11.69   c-0.236-0.64-0.612-2.038-0.623-2.51c-0.102-4.346-0.591-7.983-0.59-8.607c0.004-2.679-0.154-3.691-0.303-4.852   c-0.506-3.959-2.393-3.521-3.184-4.494c-0.792-0.974-1.854-0.745-2.544-0.56c-0.473,0.127-2.566,0.481-3.994,0.548l0,0   c0,0,3.286,6.435,3.817,7.066c0.53,0.632,2.981,3.209,3.158,4.067c0.177,0.859,0.632,4.195-1.643,5.509   c-0.461,0.267-3.841,0.48-4.599,0.177c-0.758-0.303-3.007-0.278-3.512,0c-0.506,0.278-3.159,1.773-6.822,1.743   c-1.146-0.009-2.398,0.315-2.778,0.233c0.422,1.352,0.843,2.658,0.992,3.044c0.32,0.825-0.054,1.31-0.404,1.65   c-1.213,1.179-2.729,5.458-2.83,5.93c-0.077,0.36-0.048,0.811-0.203,1.251c0.054-0.011,0.111-0.021,0.169-0.03   c0.329-0.051,1.568,0.855,2.325,1.087c9.349,2.854,19.001,2.299,19.001,2.299s0.205-0.088,0.25,0.252   c-0.033-0.251-0.058-0.437-0.065-0.513c-0.033-0.337-0.137-1.917-0.168-2.442c-0.236-3.959-0.606-4.144-0.843-5.138   c-0.235-0.994-0.674-2.056-0.656-2.746c0.017-0.69,0.185-4.262,0.438-5.188c0.253-0.926,0.488,2.24,0.539,3.555   c0.051,1.313,1.111,4.161,1.313,5.323s2.578,8.894,2.763,9.938c0.186,1.044,0.135,3.487-0.067,3.807   c-0.202,0.32-0.758,1.499-0.909,1.988c-0.151,0.488-0.219,1.853-0.219,2.594s0.101,2.729,0.219,3.251s0.421,0.674,0.809,0.354   c0.387-0.319,0.438-2.038,0.421-2.61c-0.017-0.573-0.118-0.759,0.135-0.59s0.371,1.65,0.304,2.544   c-0.068,0.893-0.32,1.246-0.32,1.246c-0.606,0.943-0.573,0.556-0.843,0.825c-0.199,0.199-0.37,0.473-0.404,0.73   c-0.238-1.787-0.618-4.323-0.741-5.009c-0.168-0.943-0.825-4.211-1.095-5.087s-0.202-0.69-0.286-1.196   c-0.084-0.505-0.051-1.819-0.017-2.561c0.025-0.574-0.19-2.209-0.305-3.074c0.04,0.345-10.283,8.793-10.687,8.97   c-0.404,0.177-0.682,0.025-0.809-0.606s-6.494-9.223-7.151-9.829c-0.657-0.606-2.906-1.643-3.238-1.842   c-0.001-0.001-0.002-0.002-0.004-0.003c-0.02,0.034-0.037,0.068-0.06,0.102c-0.387,0.556-0.893,2.392-1.061,2.981   s-0.589,5.272-0.674,7.429c-0.084,2.156,0.186,4.565,0.472,5.491c0.286,0.927,1.027,4.026,1.179,5.272   c0.151,1.247,1.381,9.434,1.566,10.36c0.186,0.926,0.236,1.616,0.236,1.616s7.563,0.557,7.581,0   c0.017-0.556,0.236-3.317,0.438-4.144c0.202-0.825,0.182-4.24,0.354-5.222c0.724-4.144,0.842-9.113,0.825-9.602   s0.017-0.69,0.186-0.438c0.168,0.252,0.319,1.414,0.319,2.341c0,2.712,0.575,5.05,0.708,5.693c0.556,2.695,2.712,8.523,3.032,9.603   c0.32,1.078,0.235,1.768,0.235,1.768l8.844,0.522c0,0,0.202-0.387,0.236-0.656c0.033-0.27,0.202-3.134,0.252-4.296   c0.051-1.162-0.05-5.845-0.151-7.024c-0.023-0.27-0.075-0.711-0.145-1.242c0.133,0.229,0.529-0.023,0.97-0.055   c0.472-0.033,1.109-0.425,1.433-0.623c1.751-1.078,1.819-3.386,1.886-3.857c0.067-0.472,0.102-0.894,0.202-1.533   C64.357,67.572,64.037,63.361,64.071,62.906z"/>
</g>
</svg>